<svg width="944" height="453" viewBox="0 0 944 453" fill="none" xmlns="http://www.w3.org/2000/svg">
<path d="M420.227 345.648C422.677 357.908 432.376 357.799 432.376 357.799C432.376 357.799 432.497 348.098 420.227 345.648Z" stroke="#088243" stroke-width="2" stroke-miterlimit="10" stroke-linejoin="round"/>
<path d="M446.103 345.648C443.653 357.908 433.953 357.799 433.953 357.799C433.953 357.799 433.843 348.098 446.103 345.648Z" stroke="#088243" stroke-width="2" stroke-miterlimit="10" stroke-linejoin="round"/>
<path d="M420.227 358.629C422.677 370.889 432.376 370.779 432.376 370.779C432.376 370.779 432.497 361.079 420.227 358.629Z" stroke="#088243" stroke-width="2" stroke-miterlimit="10" stroke-linejoin="round"/>
<path d="M446.103 358.629C443.653 370.889 433.953 370.779 433.953 370.779C433.953 370.779 433.843 361.079 446.103 358.629Z" stroke="#088243" stroke-width="2" stroke-miterlimit="10" stroke-linejoin="round"/>
<path d="M420.227 371.609C422.677 383.869 432.376 383.759 432.376 383.759C432.376 383.759 432.497 374.059 420.227 371.609Z" stroke="#088243" stroke-width="2" stroke-miterlimit="10" stroke-linejoin="round"/>
<path d="M446.103 371.609C443.653 383.869 433.953 383.759 433.953 383.759C433.953 383.759 433.843 374.059 446.103 371.609Z" stroke="#088243" stroke-width="2" stroke-miterlimit="10" stroke-linejoin="round"/>
<path d="M433.166 333.939C440.106 344.349 433.166 351.12 433.166 351.12C433.166 351.12 426.236 344.339 433.166 333.939Z" stroke="#088243" stroke-width="2" stroke-miterlimit="10" stroke-linejoin="round"/>
<path d="M433.164 351.109V397.709" stroke="#088243" stroke-width="2" stroke-miterlimit="10" stroke-linejoin="round"/>
<path d="M373.07 345.648C375.52 357.908 385.22 357.799 385.22 357.799C385.22 357.799 385.33 348.098 373.07 345.648Z" stroke="#088243" stroke-width="2" stroke-miterlimit="10" stroke-linejoin="round"/>
<path d="M398.947 345.648C396.497 357.908 386.797 357.799 386.797 357.799C386.797 357.799 386.677 348.098 398.947 345.648Z" stroke="#088243" stroke-width="2" stroke-miterlimit="10" stroke-linejoin="round"/>
<path d="M373.07 358.629C375.52 370.889 385.22 370.779 385.22 370.779C385.22 370.779 385.33 361.079 373.07 358.629Z" stroke="#088243" stroke-width="2" stroke-miterlimit="10" stroke-linejoin="round"/>
<path d="M398.947 358.629C396.497 370.889 386.797 370.779 386.797 370.779C386.797 370.779 386.677 361.079 398.947 358.629Z" stroke="#088243" stroke-width="2" stroke-miterlimit="10" stroke-linejoin="round"/>
<path d="M373.07 371.609C375.52 383.869 385.22 383.759 385.22 383.759C385.22 383.759 385.33 374.059 373.07 371.609Z" stroke="#088243" stroke-width="2" stroke-miterlimit="10" stroke-linejoin="round"/>
<path d="M398.947 371.609C396.497 383.869 386.797 383.759 386.797 383.759C386.797 383.759 386.677 374.059 398.947 371.609Z" stroke="#088243" stroke-width="2" stroke-miterlimit="10" stroke-linejoin="round"/>
<path d="M386.006 333.939C392.946 344.349 386.006 351.12 386.006 351.12C386.006 351.12 379.066 344.339 386.006 333.939Z" stroke="#088243" stroke-width="2" stroke-miterlimit="10" stroke-linejoin="round"/>
<path d="M386.008 351.109V397.709" stroke="#088243" stroke-width="2" stroke-miterlimit="10" stroke-linejoin="round"/>
<path d="M514.562 345.648C517.013 357.908 526.712 357.799 526.712 357.799C526.712 357.799 526.833 348.098 514.562 345.648Z" stroke="#088243" stroke-width="2" stroke-miterlimit="10" stroke-linejoin="round"/>
<path d="M540.455 345.648C538.005 357.908 528.305 357.799 528.305 357.799C528.305 357.799 528.185 348.098 540.455 345.648Z" stroke="#088243" stroke-width="2" stroke-miterlimit="10" stroke-linejoin="round"/>
<path d="M514.562 358.629C517.013 370.889 526.712 370.779 526.712 370.779C526.712 370.779 526.833 361.079 514.562 358.629Z" stroke="#088243" stroke-width="2" stroke-miterlimit="10" stroke-linejoin="round"/>
<path d="M540.455 358.629C538.005 370.889 528.305 370.779 528.305 370.779C528.305 370.779 528.185 361.079 540.455 358.629Z" stroke="#088243" stroke-width="2" stroke-miterlimit="10" stroke-linejoin="round"/>
<path d="M514.562 371.609C517.013 383.869 526.712 383.759 526.712 383.759C526.712 383.759 526.833 374.059 514.562 371.609Z" stroke="#088243" stroke-width="2" stroke-miterlimit="10" stroke-linejoin="round"/>
<path d="M540.455 371.609C538.005 383.869 528.305 383.759 528.305 383.759C528.305 383.759 528.185 374.059 540.455 371.609Z" stroke="#088243" stroke-width="2" stroke-miterlimit="10" stroke-linejoin="round"/>
<path d="M527.502 333.939C534.442 344.349 527.502 351.12 527.502 351.12C527.502 351.12 520.572 344.339 527.502 333.939Z" stroke="#088243" stroke-width="2" stroke-miterlimit="10" stroke-linejoin="round"/>
<path d="M527.5 351.109V397.709" stroke="#088243" stroke-width="2" stroke-miterlimit="10" stroke-linejoin="round"/>
<path d="M467.398 345.648C469.848 357.908 479.549 357.799 479.549 357.799C479.549 357.799 479.658 348.098 467.398 345.648Z" stroke="#088243" stroke-width="2" stroke-miterlimit="10" stroke-linejoin="round"/>
<path d="M493.275 345.648C490.825 357.908 481.125 357.799 481.125 357.799C481.125 357.799 481.015 348.098 493.275 345.648Z" stroke="#088243" stroke-width="2" stroke-miterlimit="10" stroke-linejoin="round"/>
<path d="M467.398 358.629C469.848 370.889 479.549 370.779 479.549 370.779C479.549 370.779 479.658 361.079 467.398 358.629Z" stroke="#088243" stroke-width="2" stroke-miterlimit="10" stroke-linejoin="round"/>
<path d="M493.275 358.629C490.825 370.889 481.125 370.779 481.125 370.779C481.125 370.779 481.015 361.079 493.275 358.629Z" stroke="#088243" stroke-width="2" stroke-miterlimit="10" stroke-linejoin="round"/>
<path d="M467.398 371.609C469.848 383.869 479.549 383.759 479.549 383.759C479.549 383.759 479.658 374.059 467.398 371.609Z" stroke="#088243" stroke-width="2" stroke-miterlimit="10" stroke-linejoin="round"/>
<path d="M493.275 371.609C490.825 383.869 481.125 383.759 481.125 383.759C481.125 383.759 481.015 374.059 493.275 371.609Z" stroke="#088243" stroke-width="2" stroke-miterlimit="10" stroke-linejoin="round"/>
<path d="M480.342 333.939C487.282 344.349 480.342 351.12 480.342 351.12C480.342 351.12 473.402 344.339 480.342 333.939Z" stroke="#088243" stroke-width="2" stroke-miterlimit="10" stroke-linejoin="round"/>
<path d="M480.336 351.109V397.709" stroke="#088243" stroke-width="2" stroke-miterlimit="10" stroke-linejoin="round"/>
<path d="M325.898 345.648C328.348 357.908 338.049 357.799 338.049 357.799C338.049 357.799 338.168 348.098 325.898 345.648Z" stroke="#088243" stroke-width="2" stroke-miterlimit="10" stroke-linejoin="round"/>
<path d="M351.775 345.648C349.325 357.908 339.625 357.799 339.625 357.799C339.625 357.799 339.515 348.098 351.775 345.648Z" stroke="#088243" stroke-width="2" stroke-miterlimit="10" stroke-linejoin="round"/>
<path d="M325.898 358.629C328.348 370.889 338.049 370.779 338.049 370.779C338.049 370.779 338.168 361.079 325.898 358.629Z" stroke="#088243" stroke-width="2" stroke-miterlimit="10" stroke-linejoin="round"/>
<path d="M351.775 358.629C349.325 370.889 339.625 370.779 339.625 370.779C339.625 370.779 339.515 361.079 351.775 358.629Z" stroke="#088243" stroke-width="2" stroke-miterlimit="10" stroke-linejoin="round"/>
<path d="M325.898 371.609C328.348 383.869 338.049 383.759 338.049 383.759C338.049 383.759 338.168 374.059 325.898 371.609Z" stroke="#088243" stroke-width="2" stroke-miterlimit="10" stroke-linejoin="round"/>
<path d="M351.775 371.609C349.325 383.869 339.625 383.759 339.625 383.759C339.625 383.759 339.515 374.059 351.775 371.609Z" stroke="#088243" stroke-width="2" stroke-miterlimit="10" stroke-linejoin="round"/>
<path d="M338.842 333.939C345.782 344.349 338.842 351.12 338.842 351.12C338.842 351.12 331.902 344.339 338.842 333.939Z" stroke="#088243" stroke-width="2" stroke-miterlimit="10" stroke-linejoin="round"/>
<path d="M338.836 351.109V397.709" stroke="#088243" stroke-width="2" stroke-miterlimit="10" stroke-linejoin="round"/>
<path d="M421.57 270.82L487.78 324.08" stroke="#088243" stroke-width="4" stroke-miterlimit="10" stroke-linejoin="round"/>
<path d="M343.438 270.82L409.657 324.08V397.71H275.688" stroke="#088243" stroke-width="4" stroke-miterlimit="10" stroke-linejoin="round"/>
<path d="M499.597 270.88V270.82H343.607L275.867 325.31V397.71H343.607H409.827H431.777H499.597H565.737V324.08L499.597 270.88Z" stroke="#088243" stroke-width="4" stroke-miterlimit="10" stroke-linejoin="round"/>
<path d="M409.656 324.08H565.736" stroke="#088243" stroke-width="4" stroke-miterlimit="10" stroke-linejoin="round"/>
<path d="M275.867 325.31L410.147 324.27" stroke="#088243" stroke-width="4" stroke-miterlimit="10" stroke-linejoin="round"/>
<path d="M565.74 413.559H314.42L287.57 405.469H565.74V413.559Z" stroke="#088243" stroke-width="4" stroke-miterlimit="10" stroke-linejoin="round"/>
<path d="M565.823 424.68H355.562V432.77H565.823V424.68Z" stroke="#088243" stroke-width="4" stroke-miterlimit="10" stroke-linejoin="round"/>
<path d="M565.833 450.789H355.562V442.699H565.742L565.833 450.789Z" stroke="#088243" stroke-width="4" stroke-miterlimit="10" stroke-linejoin="round"/>
<path d="M190.117 301.85H186.798V345.47H180.808V301.99H158.857V345.47H154.978V301.99H121.338L104.938 359.11V351.34C104.938 349.16 103.328 347.35 101.208 347.04L101.188 347.01L114.377 301.86H102.137L104.488 299.33C106.368 297.32 109.008 296.16 111.758 296.16H184.417C185.997 296.16 187.408 296.8 188.448 297.82C189.488 298.84 190.117 300.27 190.117 301.85Z" stroke="#088243" stroke-width="4" stroke-miterlimit="10" stroke-linejoin="round"/>
<path d="M221.549 356.91L243.749 413.68H355.559V449.76L344.289 424.07H338.189C338.189 424.07 337.589 450.36 338.189 449.76C338.789 449.16 325.259 424.07 325.259 424.07H317.329V449.77L302.719 424.07H291.379V449.77L279.639 424.07H240.819L221.039 371.55L221.549 356.91Z" stroke="#088243" stroke-width="4" stroke-miterlimit="10" stroke-linejoin="round"/>
<path d="M96.4497 306.109V300.269C96.4397 298.159 94.9896 294.089 89.6096 293.779L89.4297 296.829C93.1197 297.039 93.3796 299.769 93.3896 300.289V306.119H92.2698V346.999H97.5598V306.119H96.4497V306.109Z" stroke="#088243" stroke-width="4" stroke-miterlimit="10" stroke-linejoin="round"/>
<path d="M221.55 356.909L221.05 371.539C219.86 370.469 213.32 364.279 212.01 363.309C203.01 356.549 192.729 354.919 181.449 354.919C163.319 354.919 146.32 364.599 137.06 380.179C135.08 383.519 133.47 387.099 132.29 390.789C130.91 395.049 130.109 399.499 129.909 403.969C129.859 404.829 129.84 405.679 129.84 406.539C129.84 406.839 129.839 407.159 129.859 407.459H76.7896C72.5796 389.099 56.0895 375.369 36.4695 375.369C31.0495 375.369 25.7394 376.459 20.8594 378.459L21.6194 370.019C22.4094 361.229 29.2195 354.179 37.9795 353.099L87.9995 347.009H100.639C100.839 347.009 101.039 347.029 101.229 347.039C103.339 347.339 104.959 349.149 104.959 351.339V381.479H121.879L137.76 352.729C139.44 348.369 143.63 345.479 148.3 345.479H199.439C202.559 345.479 205.57 345.279 207.77 347.489L221.55 356.909Z" stroke="#088243" stroke-width="4" stroke-miterlimit="10" stroke-linejoin="round"/>
<path d="M36.4609 383.76C24.3809 383.76 13.8211 390.24 8.08105 399.92C5.14105 404.85 3.46094 410.61 3.46094 416.76C3.46094 434.99 18.2409 449.76 36.4609 449.76C54.4309 449.76 69.0509 435.39 69.4509 417.52C69.4609 417.27 69.4609 417.01 69.4609 416.76C69.4709 398.54 54.6909 383.76 36.4609 383.76Z" stroke="#088243" stroke-width="4" stroke-miterlimit="10" stroke-linejoin="round"/>
<path d="M207.401 371.969C200.171 366.529 191.181 363.309 181.441 363.309C165.621 363.309 151.791 371.799 144.261 384.479C142.611 387.249 141.261 390.219 140.261 393.349C139.141 396.859 138.451 400.568 138.261 404.398C138.221 405.108 138.211 405.819 138.211 406.539C138.211 410.339 138.701 414.019 139.621 417.529C144.481 436.079 161.361 449.769 181.441 449.769C204.981 449.769 224.131 430.949 224.651 407.539C224.661 407.209 224.671 406.879 224.671 406.539C224.681 392.399 217.891 379.849 207.401 371.969Z" stroke="#088243" stroke-width="4" stroke-miterlimit="10" stroke-linejoin="round"/>
<path d="M317.008 4.23828V128.208" stroke="#088243" stroke-width="4" stroke-miterlimit="10" stroke-linejoin="round"/>
<path d="M329.671 25.959L317.021 38.6191L304.352 25.959" stroke="#088243" stroke-width="4" stroke-miterlimit="10" stroke-linejoin="round"/>
<path d="M334.462 39.5391L317.022 56.989L299.562 39.5391" stroke="#088243" stroke-width="4" stroke-miterlimit="10" stroke-linejoin="round"/>
<path d="M335.921 56.4395L317.021 75.3496L298.102 56.4395" stroke="#088243" stroke-width="4" stroke-miterlimit="10" stroke-linejoin="round"/>
<path d="M297.969 51.6284C297.969 74.1184 306.499 85.6782 317.019 85.6782C327.539 85.6782 336.069 74.1184 336.069 51.6284C336.069 29.1384 317.019 4.23828 317.019 4.23828C317.019 4.23828 297.969 29.1384 297.969 51.6284Z" stroke="#088243" stroke-width="4" stroke-miterlimit="10" stroke-linejoin="round"/>
<path d="M386.836 66.6191V206.569" stroke="#088243" stroke-width="4" stroke-miterlimit="10" stroke-linejoin="round"/>
<path d="M401.131 91.1389L386.831 105.429L372.531 91.1289" stroke="#088243" stroke-width="4" stroke-miterlimit="10" stroke-linejoin="round"/>
<path d="M406.533 106.469L386.833 126.159L367.133 106.469" stroke="#088243" stroke-width="4" stroke-miterlimit="10" stroke-linejoin="round"/>
<path d="M408.172 125.549L386.832 146.889L365.492 125.549" stroke="#088243" stroke-width="4" stroke-miterlimit="10" stroke-linejoin="round"/>
<path d="M365.336 120.119C365.336 145.509 374.966 158.559 386.836 158.559C398.716 158.559 408.336 145.509 408.336 120.119C408.336 94.7291 386.836 66.6191 386.836 66.6191C386.836 66.6191 365.336 94.7291 365.336 120.119Z" stroke="#088243" stroke-width="4" stroke-miterlimit="10" stroke-linejoin="round"/>
<path d="M410.788 245.449H2.82812V205.77H386.838C397.108 221.04 405.018 234.659 410.788 245.449Z" stroke="#088243" stroke-width="4" stroke-miterlimit="10" stroke-linejoin="round"/>
<path d="M423.068 270.919H2.82812V245.459H410.788C419.198 261.189 423.068 270.919 423.068 270.919Z" stroke="#088243" stroke-width="4" stroke-miterlimit="10" stroke-linejoin="round"/>
<path d="M386.838 205.77H2.82812V166.09H357.118C368.648 179.97 378.528 193.41 386.838 205.77Z" stroke="#088243" stroke-width="4" stroke-miterlimit="10" stroke-linejoin="round"/>
<path d="M272.798 86.7383C290.298 99.4583 306.058 112.868 320.188 126.418H2.82812V86.7383H272.798Z" stroke="#088243" stroke-width="4" stroke-miterlimit="10" stroke-linejoin="round"/>
<path d="M357.118 166.1H2.82812V126.42H320.188C334.028 139.68 346.308 153.08 357.118 166.1Z" stroke="#088243" stroke-width="4" stroke-miterlimit="10" stroke-linejoin="round"/>
<path d="M2.82812 47.0586H206.628C230.998 58.8586 253.008 72.3585 272.798 86.7385H2.82812V47.0586Z" stroke="#088243" stroke-width="4" stroke-miterlimit="10" stroke-linejoin="round"/>
<path d="M2.82812 2.2793C84.0681 2.2793 151.418 20.3293 206.628 47.0593H2.82812V2.2793Z" stroke="#088243" stroke-width="4" stroke-miterlimit="10" stroke-linejoin="round"/>
<path d="M941.762 324.27H565.742V450.78H941.762V324.27Z" stroke="#088243" stroke-width="4" stroke-miterlimit="10" stroke-linejoin="round"/>
<path d="M645.739 398.429C633.699 359.349 601.909 332.05 564.969 324.27C589.599 337.15 609.339 359.62 618.259 388.55C624.739 409.57 624.599 431.08 619.049 450.78H648.829C651.939 433.89 651.149 415.989 645.739 398.429Z" stroke="#088243" stroke-width="4" stroke-miterlimit="10" stroke-linejoin="round"/>
<path d="M731.247 398.429C719.207 359.349 687.417 332.05 650.477 324.27C675.107 337.15 694.847 359.62 703.767 388.55C710.247 409.57 710.107 431.08 704.557 450.78H734.337C737.457 433.89 736.657 415.989 731.247 398.429Z" stroke="#088243" stroke-width="4" stroke-miterlimit="10" stroke-linejoin="round"/>
<path d="M816.77 398.429C804.73 359.349 772.94 332.05 736 324.27C760.63 337.15 780.37 359.62 789.29 388.55C795.77 409.57 795.63 431.08 790.08 450.78H819.86C822.97 433.89 822.18 415.989 816.77 398.429Z" stroke="#088243" stroke-width="4" stroke-miterlimit="10" stroke-linejoin="round"/>
<path d="M902.278 398.429C890.238 359.349 858.448 332.05 821.508 324.27C846.138 337.15 865.878 359.62 874.798 388.55C881.278 409.57 881.138 431.08 875.588 450.78H905.368C908.488 433.89 907.688 415.989 902.278 398.429Z" stroke="#088243" stroke-width="4" stroke-miterlimit="10" stroke-linejoin="round"/>
<path d="M754.27 2.15942V234.14C738.19 237.59 721.509 239.399 704.399 239.399C573.349 239.399 467.109 133.16 467.109 2.09961L754.27 2.15942Z" stroke="#088243" stroke-width="4" stroke-miterlimit="10" stroke-linejoin="round"/>
<path d="M690.797 52.0293C693.687 66.4893 705.117 66.3494 705.117 66.3494C705.117 66.3494 705.257 54.9193 690.797 52.0293Z" stroke="#088243" stroke-width="4" stroke-miterlimit="10" stroke-linejoin="round"/>
<path d="M721.32 52.0293C718.43 66.4893 707 66.3494 707 66.3494C707 66.3494 706.86 54.9193 721.32 52.0293Z" stroke="#088243" stroke-width="4" stroke-miterlimit="10" stroke-linejoin="round"/>
<path d="M690.797 67.3301C693.687 81.7901 705.117 81.6499 705.117 81.6499C705.117 81.6499 705.257 70.2201 690.797 67.3301Z" stroke="#088243" stroke-width="4" stroke-miterlimit="10" stroke-linejoin="round"/>
<path d="M721.32 67.3301C718.43 81.7901 707 81.6499 707 81.6499C707 81.6499 706.86 70.2201 721.32 67.3301Z" stroke="#088243" stroke-width="4" stroke-miterlimit="10" stroke-linejoin="round"/>
<path d="M690.797 82.6387C693.687 97.0987 705.117 96.9585 705.117 96.9585C705.117 96.9585 705.257 85.5287 690.797 82.6387Z" stroke="#088243" stroke-width="4" stroke-miterlimit="10" stroke-linejoin="round"/>
<path d="M721.32 82.6387C718.43 97.0987 707 96.9585 707 96.9585C707 96.9585 706.86 85.5287 721.32 82.6387Z" stroke="#088243" stroke-width="4" stroke-miterlimit="10" stroke-linejoin="round"/>
<path d="M706.057 38.2188C714.237 50.4888 706.057 58.4788 706.057 58.4788C706.057 58.4788 697.877 50.4888 706.057 38.2188Z" stroke="#088243" stroke-width="4" stroke-miterlimit="10" stroke-linejoin="round"/>
<path d="M706.055 58.4688V113.419" stroke="#088243" stroke-width="4" stroke-miterlimit="10" stroke-linejoin="round"/>
<path d="M731.864 114.539H679.234V124.929H731.864V114.539Z" stroke="#088243" stroke-width="4" stroke-miterlimit="10" stroke-linejoin="round"/>
<path d="M735.481 124.93H682.852V135.32H735.481V124.93Z" stroke="#088243" stroke-width="4" stroke-miterlimit="10" stroke-linejoin="round"/>
<path d="M729.255 135.328H676.625V145.718H729.255V135.328Z" stroke="#088243" stroke-width="4" stroke-miterlimit="10" stroke-linejoin="round"/>
<path d="M731.607 145.719H678.977V156.109H731.607V145.719Z" stroke="#088243" stroke-width="4" stroke-miterlimit="10" stroke-linejoin="round"/>
<path d="M733.896 156.119H681.266V166.509H733.896V156.119Z" stroke="#088243" stroke-width="4" stroke-miterlimit="10" stroke-linejoin="round"/>
<path d="M660.575 124.93H607.945V135.32H660.575V124.93Z" stroke="#088243" stroke-width="4" stroke-miterlimit="10" stroke-linejoin="round"/>
<path d="M663.896 135.33H611.266V145.72H663.896V135.33Z" stroke="#088243" stroke-width="4" stroke-miterlimit="10" stroke-linejoin="round"/>
<path d="M661.872 145.719H609.242V156.109H661.872V145.719Z" stroke="#088243" stroke-width="4" stroke-miterlimit="10" stroke-linejoin="round"/>
<path d="M663.896 156.119H611.266V166.509H663.896V156.119Z" stroke="#088243" stroke-width="4" stroke-miterlimit="10" stroke-linejoin="round"/>
<path d="M599.036 135.328H546.406V145.718H599.036V135.328Z" stroke="#088243" stroke-width="4" stroke-miterlimit="10" stroke-linejoin="round"/>
<path d="M597.013 145.719H544.383V156.109H597.013V145.719Z" stroke="#088243" stroke-width="4" stroke-miterlimit="10" stroke-linejoin="round"/>
<path d="M599.036 156.117H546.406V166.507H599.036V156.117Z" stroke="#088243" stroke-width="4" stroke-miterlimit="10" stroke-linejoin="round"/>
</svg>
