<svg width="1104" height="453" viewBox="0 0 1104 453" fill="none" xmlns="http://www.w3.org/2000/svg">
<path d="M761.856 390.739C776.188 390.739 787.806 365.586 787.806 334.559C787.806 303.531 776.188 278.379 761.856 278.379C747.524 278.379 735.906 303.531 735.906 334.559C735.906 365.586 747.524 390.739 761.856 390.739Z" stroke="#088243" stroke-width="4" stroke-miterlimit="10" stroke-linejoin="round"/>
<path d="M761.859 334.559V450.789" stroke="#088243" stroke-width="4" stroke-miterlimit="10" stroke-linejoin="round"/>
<path d="M761.859 359.74L787.419 334.18" stroke="#088243" stroke-width="4" stroke-miterlimit="10" stroke-linejoin="round"/>
<path d="M761.855 373.199L736.375 347.709" stroke="#088243" stroke-width="4" stroke-miterlimit="10" stroke-linejoin="round"/>
<path d="M189.703 110.91H254.783V264.91L189.703 324.69V110.91Z" stroke="#088243" stroke-width="4" stroke-miterlimit="10" stroke-linejoin="round"/>
<path d="M319.859 110.91H384.929V264.91L319.859 324.69V110.91Z" stroke="#088243" stroke-width="4" stroke-miterlimit="10" stroke-linejoin="round"/>
<path d="M450.016 110.91H515.096V264.91L450.016 324.69V110.91Z" stroke="#088243" stroke-width="4" stroke-miterlimit="10" stroke-linejoin="round"/>
<path d="M319.861 167.02L255.161 110.91H254.781V142.34L319.861 198.79V167.02Z" stroke="#088243" stroke-width="4" stroke-miterlimit="10" stroke-linejoin="round"/>
<path d="M319.861 110.91H291.781L319.861 135.26V110.91Z" stroke="#088243" stroke-width="4" stroke-miterlimit="10" stroke-linejoin="round"/>
<path d="M319.861 198.79L254.781 142.34V174.1L319.861 230.55V198.79Z" stroke="#088243" stroke-width="4" stroke-miterlimit="10" stroke-linejoin="round"/>
<path d="M319.864 135.26L291.784 110.91H255.164L319.864 167.02V135.26Z" stroke="#088243" stroke-width="4" stroke-miterlimit="10" stroke-linejoin="round"/>
<path d="M319.861 230.55L254.781 174.1V205.86L319.861 262.31V230.55Z" stroke="#088243" stroke-width="4" stroke-miterlimit="10" stroke-linejoin="round"/>
<path d="M254.781 237.52V264.909L319.861 324.689V293.969L254.781 237.52Z" stroke="#088243" stroke-width="4" stroke-miterlimit="10" stroke-linejoin="round"/>
<path d="M319.861 262.309L254.781 205.859V237.519L319.861 293.969V262.309Z" stroke="#088243" stroke-width="4" stroke-miterlimit="10" stroke-linejoin="round"/>
<path d="M450.01 167.02L385.32 110.91H384.93V142.34L450.01 198.79V167.02Z" stroke="#088243" stroke-width="4" stroke-miterlimit="10" stroke-linejoin="round"/>
<path d="M450.008 110.91H421.938L450.008 135.26V110.91Z" stroke="#088243" stroke-width="4" stroke-miterlimit="10" stroke-linejoin="round"/>
<path d="M450.01 198.79L384.93 142.34V174.1L450.01 230.55V198.79Z" stroke="#088243" stroke-width="4" stroke-miterlimit="10" stroke-linejoin="round"/>
<path d="M450.01 135.26L421.94 110.91H385.32L450.01 167.02V135.26Z" stroke="#088243" stroke-width="4" stroke-miterlimit="10" stroke-linejoin="round"/>
<path d="M450.01 230.55L384.93 174.1V205.86L450.01 262.31V230.55Z" stroke="#088243" stroke-width="4" stroke-miterlimit="10" stroke-linejoin="round"/>
<path d="M384.93 237.52V264.909L450.01 324.689V293.969L384.93 237.52Z" stroke="#088243" stroke-width="4" stroke-miterlimit="10" stroke-linejoin="round"/>
<path d="M450.01 262.309L384.93 205.859V237.519L450.01 293.969V262.309Z" stroke="#088243" stroke-width="4" stroke-miterlimit="10" stroke-linejoin="round"/>
<path d="M580.174 167.02L515.484 110.91H515.094V142.34L580.174 198.79V167.02Z" stroke="#088243" stroke-width="4" stroke-miterlimit="10" stroke-linejoin="round"/>
<path d="M580.172 110.91H552.102L580.172 135.26V110.91Z" stroke="#088243" stroke-width="4" stroke-miterlimit="10" stroke-linejoin="round"/>
<path d="M580.174 198.79L515.094 142.34V174.1L580.174 230.55V198.79Z" stroke="#088243" stroke-width="4" stroke-miterlimit="10" stroke-linejoin="round"/>
<path d="M580.174 135.26L552.104 110.91H515.484L580.174 167.02V135.26Z" stroke="#088243" stroke-width="4" stroke-miterlimit="10" stroke-linejoin="round"/>
<path d="M580.174 230.55L515.094 174.1V205.86L580.174 262.31V230.55Z" stroke="#088243" stroke-width="4" stroke-miterlimit="10" stroke-linejoin="round"/>
<path d="M515.094 237.52V264.909L580.174 324.689V293.969L515.094 237.52Z" stroke="#088243" stroke-width="4" stroke-miterlimit="10" stroke-linejoin="round"/>
<path d="M580.174 262.309L515.094 205.859V237.519L580.174 293.969V262.309Z" stroke="#088243" stroke-width="4" stroke-miterlimit="10" stroke-linejoin="round"/>
<path d="M515.093 264.91L450.013 324.69L384.933 264.91L319.863 324.69L254.783 264.91L189.703 324.69V450.79H319.863H450.013H580.173V324.69L515.093 264.91Z" stroke="#088243" stroke-width="4" stroke-miterlimit="10" stroke-linejoin="round"/>
<path d="M265.072 334.68H244.492V372.6H265.072V334.68Z" stroke="#088243" stroke-width="4" stroke-miterlimit="10" stroke-linejoin="round"/>
<path d="M395.229 334.68H374.648V372.6H395.229V334.68Z" stroke="#088243" stroke-width="4" stroke-miterlimit="10" stroke-linejoin="round"/>
<path d="M525.15 334.68H504.57V372.6H525.15V334.68Z" stroke="#088243" stroke-width="4" stroke-miterlimit="10" stroke-linejoin="round"/>
<path d="M645.392 450.79H580.312V324.69L645.392 264.91V450.79Z" stroke="#088243" stroke-width="4" stroke-miterlimit="10" stroke-linejoin="round"/>
<path d="M694.151 221V279.9L645.391 324.69V450.79H710.471V361.48V264.91V221H694.151Z" stroke="#088243" stroke-width="4" stroke-miterlimit="10" stroke-linejoin="round"/>
<path d="M691.07 198.34C691.07 191.49 696.8 185.94 703.88 185.94C706.64 185.94 709.19 186.79 711.28 188.23C713.06 179.61 720.91 173.12 730.33 173.12C734.84 173.12 738.99 174.61 742.28 177.11C745.59 166.27 755.95 158.37 768.21 158.37C771.99 158.37 775.59 159.12 778.86 160.48C785.57 145.15 801.24 134.4 819.51 134.4C824.24 134.4 828.79 135.13 833.07 136.46C841.89 124 854.59 114.75 870.13 110.91V198.34H691.07Z" stroke="#088243" stroke-width="4" stroke-miterlimit="10" stroke-linejoin="round"/>
<path d="M1056.06 61.4597L830.442 65.3997L805.552 31.5898H791.992L809.822 83.4097L884.492 99.1997H950.452L892.282 141.88H917.652L1006.45 99.1997H1101.8C1101.81 61.4597 1056.06 61.4597 1056.06 61.4597Z" stroke="#088243" stroke-width="4" stroke-miterlimit="10" stroke-linejoin="round"/>
<path d="M189.706 2.16016H2.26562V324.27H189.706V2.16016Z" stroke="#088243" stroke-width="4" stroke-miterlimit="10" stroke-linejoin="round"/>
<path d="M141.892 270.111H51.2119C43.0419 270.111 36.4219 263.491 36.4219 255.321V79.5713C36.4219 71.4013 43.0419 64.7812 51.2119 64.7812H141.892C150.062 64.7812 156.682 71.4013 156.682 79.5713V255.321C156.682 263.491 150.062 270.111 141.892 270.111Z" stroke="#088243" stroke-width="4" stroke-miterlimit="10" stroke-linejoin="round"/>
<path d="M111.817 211.994L132.617 211.994L132.617 132.894L111.817 132.894L111.817 211.994Z" stroke="#088243" stroke-width="4" stroke-miterlimit="10" stroke-linejoin="round"/>
<path d="M86.1609 211.996L106.961 211.996L106.961 149.846L86.1609 149.846L86.1609 211.996Z" stroke="#088243" stroke-width="4" stroke-miterlimit="10" stroke-linejoin="round"/>
<path d="M60.489 211.996L81.2891 211.996L81.2891 175.186L60.489 175.186L60.489 211.996Z" stroke="#088243" stroke-width="4" stroke-miterlimit="10" stroke-linejoin="round"/>
<path d="M109.094 78.4519H84.0237C82.5437 78.4519 81.3438 77.252 81.3438 75.772V74.1819C81.3438 72.7019 82.5437 71.502 84.0237 71.502H109.094C110.574 71.502 111.774 72.7019 111.774 74.1819V75.772C111.774 77.252 110.574 78.4519 109.094 78.4519Z" stroke="#088243" stroke-width="4" stroke-miterlimit="10" stroke-linejoin="round"/>
<path d="M60.6641 159.011H68.9741L85.7742 130.681L95.374 138.791L123.894 102.361" stroke="#088243" stroke-width="4" stroke-miterlimit="10" stroke-linejoin="round"/>
</svg>
