<svg width="1194" height="745" viewBox="0 0 1194 745" fill="none" xmlns="http://www.w3.org/2000/svg">
<path d="M502.908 594.321H368.688C367.587 594.321 366.688 593.421 366.688 592.321V146.551C366.688 145.451 367.587 144.551 368.688 144.551H502.908C504.008 144.551 504.908 145.451 504.908 146.551V592.321C504.908 593.421 504.008 594.321 502.908 594.321ZM370.688 590.321H500.908V148.551H370.688V590.321Z" fill="#088243"/>
<path d="M502.908 173.311H391.328V177.311H502.908V173.311Z" fill="#088243"/>
<path d="M502.908 197.98H391.328V201.98H502.908V197.98Z" fill="#088243"/>
<path d="M502.908 222.65H391.328V226.65H502.908V222.65Z" fill="#088243"/>
<path d="M502.908 247.32H391.328V251.32H502.908V247.32Z" fill="#088243"/>
<path d="M502.908 272H391.328V276H502.908V272Z" fill="#088243"/>
<path d="M502.908 296.67H391.328V300.67H502.908V296.67Z" fill="#088243"/>
<path d="M502.908 321.34H391.328V325.34H502.908V321.34Z" fill="#088243"/>
<path d="M502.908 346.01H391.328V350.01H502.908V346.01Z" fill="#088243"/>
<path d="M502.908 370.68H391.328V374.68H502.908V370.68Z" fill="#088243"/>
<path d="M502.908 395.352H391.328V399.352H502.908V395.352Z" fill="#088243"/>
<path d="M502.908 420.021H391.328V424.021H502.908V420.021Z" fill="#088243"/>
<path d="M502.908 444.691H391.328V448.691H502.908V444.691Z" fill="#088243"/>
<path d="M502.908 469.361H391.328V473.361H502.908V469.361Z" fill="#088243"/>
<path d="M502.908 494.031H391.328V498.031H502.908V494.031Z" fill="#088243"/>
<path d="M502.908 518.701H391.328V522.701H502.908V518.701Z" fill="#088243"/>
<path d="M502.908 197.98H391.328V201.98H502.908V197.98Z" fill="#088243"/>
<path d="M502.908 222.65H391.328V226.65H502.908V222.65Z" fill="#088243"/>
<path d="M502.908 247.32H391.328V251.32H502.908V247.32Z" fill="#088243"/>
<path d="M502.908 272H391.328V276H502.908V272Z" fill="#088243"/>
<path d="M502.908 296.67H391.328V300.67H502.908V296.67Z" fill="#088243"/>
<path d="M502.908 321.34H391.328V325.34H502.908V321.34Z" fill="#088243"/>
<path d="M502.908 346.01H391.328V350.01H502.908V346.01Z" fill="#088243"/>
<path d="M502.908 370.68H391.328V374.68H502.908V370.68Z" fill="#088243"/>
<path d="M502.908 395.352H391.328V399.352H502.908V395.352Z" fill="#088243"/>
<path d="M502.908 420.021H391.328V424.021H502.908V420.021Z" fill="#088243"/>
<path d="M502.908 444.691H391.328V448.691H502.908V444.691Z" fill="#088243"/>
<path d="M502.908 469.361H391.328V473.361H502.908V469.361Z" fill="#088243"/>
<path d="M502.908 494.031H391.328V498.031H502.908V494.031Z" fill="#088243"/>
<path d="M502.908 518.701H391.328V522.701H502.908V518.701Z" fill="#088243"/>
<path d="M393.328 146.561H389.328V592.321H393.328V146.561Z" fill="#088243"/>
<path d="M502.906 148.561H358.266C357.166 148.561 356.266 147.661 356.266 146.561V112.941C356.266 111.841 357.166 110.941 358.266 110.941H391.326C392.426 110.941 393.326 111.841 393.326 112.941V117.441L492.815 73.9406V14.7006C492.815 14.3006 492.936 13.9206 493.156 13.5906L501.246 1.53065C501.736 0.800649 502.645 0.470661 503.485 0.730661C504.325 0.990661 504.906 1.76063 504.906 2.64063V146.581C504.906 147.661 504.006 148.561 502.906 148.561ZM360.266 144.561H500.906V9.19062L496.815 15.2806V75.2206C496.815 76.0107 496.346 76.7307 495.616 77.0507L392.125 122.301C391.505 122.571 390.796 122.511 390.226 122.141C389.666 121.771 389.316 121.141 389.316 120.471V114.921H360.256V144.561H360.266Z" fill="#088243"/>
<path d="M752.292 523.633H555.742C554.642 523.633 553.742 522.733 553.742 521.633V214.473C553.742 213.373 554.642 212.473 555.742 212.473H752.292C753.392 212.473 754.292 213.373 754.292 214.473V521.633C754.292 522.743 753.402 523.633 752.292 523.633ZM557.742 519.633H750.292V216.473H557.742V519.633Z" fill="#088243"/>
<path d="M722.422 247.803H585.852C584.752 247.803 583.852 246.903 583.852 245.803V233.133C583.852 232.033 584.752 231.133 585.852 231.133H722.422C723.522 231.133 724.422 232.033 724.422 233.133V245.803C724.422 246.903 723.522 247.803 722.422 247.803ZM587.852 243.803H720.422V235.133H587.852V243.803Z" fill="#088243"/>
<path d="M722.422 277.713H585.852C584.752 277.713 583.852 276.813 583.852 275.713V263.043C583.852 261.943 584.752 261.043 585.852 261.043H722.422C723.522 261.043 724.422 261.943 724.422 263.043V275.713C724.422 276.823 723.522 277.713 722.422 277.713ZM587.852 273.713H720.422V265.043H587.852V273.713Z" fill="#088243"/>
<path d="M722.422 307.623H585.852C584.752 307.623 583.852 306.723 583.852 305.623V292.953C583.852 291.853 584.752 290.953 585.852 290.953H722.422C723.522 290.953 724.422 291.853 724.422 292.953V305.623C724.422 306.733 723.522 307.623 722.422 307.623ZM587.852 303.623H720.422V294.953H587.852V303.623Z" fill="#088243"/>
<path d="M722.422 337.533H585.852C584.752 337.533 583.852 336.633 583.852 335.533V322.863C583.852 321.763 584.752 320.863 585.852 320.863H722.422C723.522 320.863 724.422 321.763 724.422 322.863V335.533C724.422 336.643 723.522 337.533 722.422 337.533ZM587.852 333.533H720.422V324.863H587.852V333.533Z" fill="#088243"/>
<path d="M722.422 367.443H585.852C584.752 367.443 583.852 366.543 583.852 365.443V352.773C583.852 351.673 584.752 350.773 585.852 350.773H722.422C723.522 350.773 724.422 351.673 724.422 352.773V365.443C724.422 366.553 723.522 367.443 722.422 367.443ZM587.852 363.443H720.422V354.773H587.852V363.443Z" fill="#088243"/>
<path d="M722.422 397.354H585.852C584.752 397.354 583.852 396.454 583.852 395.354V382.684C583.852 381.584 584.752 380.684 585.852 380.684H722.422C723.522 380.684 724.422 381.584 724.422 382.684V395.354C724.422 396.464 723.522 397.354 722.422 397.354ZM587.852 393.354H720.422V384.684H587.852V393.354Z" fill="#088243"/>
<path d="M722.422 427.272H585.852C584.752 427.272 583.852 426.372 583.852 425.272V412.602C583.852 411.502 584.752 410.602 585.852 410.602H722.422C723.522 410.602 724.422 411.502 724.422 412.602V425.272C724.422 426.372 723.522 427.272 722.422 427.272ZM587.852 423.272H720.422V414.602H587.852V423.272Z" fill="#088243"/>
<path d="M722.422 457.182H585.852C584.752 457.182 583.852 456.282 583.852 455.182V442.512C583.852 441.412 584.752 440.512 585.852 440.512H722.422C723.522 440.512 724.422 441.412 724.422 442.512V455.182C724.422 456.282 723.522 457.182 722.422 457.182ZM587.852 453.182H720.422V444.512H587.852V453.182Z" fill="#088243"/>
<path d="M722.422 487.092H585.852C584.752 487.092 583.852 486.192 583.852 485.092V472.422C583.852 471.322 584.752 470.422 585.852 470.422H722.422C723.522 470.422 724.422 471.322 724.422 472.422V485.092C724.422 486.192 723.522 487.092 722.422 487.092ZM587.852 483.092H720.422V474.422H587.852V483.092Z" fill="#088243"/>
<path d="M694.361 216.472H613.671C612.841 216.472 612.101 215.962 611.811 215.192C611.511 214.422 611.721 213.552 612.331 212.992C612.641 212.712 643.561 183.892 644.001 131.392C644.011 130.292 644.901 129.412 646.001 129.412H662.031C663.131 129.412 664.021 130.302 664.031 131.392C664.481 183.982 695.391 212.702 695.701 212.992C696.311 213.552 696.521 214.422 696.221 215.192C695.931 215.972 695.191 216.472 694.361 216.472ZM618.411 212.472H689.621C681.371 203.342 661.031 176.572 660.061 133.412H647.971C647.001 176.572 626.671 203.342 618.411 212.472Z" fill="#088243"/>
<path d="M668.851 133.412H639.191C638.091 133.412 637.191 132.512 637.191 131.412V115.432C637.191 114.332 638.091 113.432 639.191 113.432H668.851C669.951 113.432 670.851 114.332 670.851 115.432V131.412C670.851 132.522 669.951 133.412 668.851 133.412ZM641.191 129.412H666.851V117.432H641.191V129.412Z" fill="#088243"/>
<path d="M655.851 117.432H652.191C651.091 117.432 650.191 116.532 650.191 115.432V78.7617C650.191 77.6617 651.091 76.7617 652.191 76.7617H655.851C656.951 76.7617 657.851 77.6617 657.851 78.7617V115.432C657.851 116.542 656.951 117.432 655.851 117.432Z" fill="#088243"/>
<path d="M800.823 594.321H502.633C501.533 594.321 500.633 593.421 500.633 592.321V521.631C500.633 520.531 501.533 519.631 502.633 519.631H800.823C801.923 519.631 802.823 520.531 802.823 521.631V592.321C802.823 593.421 801.933 594.321 800.823 594.321ZM504.633 590.321H798.823V523.631H504.633V590.321Z" fill="#088243"/>
<path d="M569.629 594.322H543.359C542.259 594.322 541.359 593.422 541.359 592.322V542.912C541.359 541.812 542.259 540.912 543.359 540.912H569.629C570.729 540.912 571.629 541.812 571.629 542.912V592.322C571.629 593.422 570.729 594.322 569.629 594.322ZM545.359 590.322H567.629V544.912H545.359V590.322Z" fill="#088243"/>
<path d="M665.325 594.322H639.055C637.955 594.322 637.055 593.422 637.055 592.322V542.912C637.055 541.812 637.955 540.912 639.055 540.912H665.325C666.425 540.912 667.325 541.812 667.325 542.912V592.322C667.325 593.422 666.435 594.322 665.325 594.322ZM641.055 590.322H663.325V544.912H641.055V590.322Z" fill="#088243"/>
<path d="M761.022 594.322H734.742C733.642 594.322 732.742 593.422 732.742 592.322V542.912C732.742 541.812 733.642 540.912 734.742 540.912H761.022C762.122 540.912 763.022 541.812 763.022 542.912V592.322C763.022 593.422 762.132 594.322 761.022 594.322ZM736.742 590.322H759.022V544.912H736.742V590.322Z" fill="#088243"/>
<path d="M244.564 701.391H151.764C146.884 701.391 142.914 697.421 142.914 692.541V642.711C142.914 637.831 146.884 633.861 151.764 633.861H244.564C249.444 633.861 253.414 637.831 253.414 642.711V692.541C253.414 697.421 249.444 701.391 244.564 701.391ZM151.764 637.861C149.094 637.861 146.914 640.041 146.914 642.711V692.541C146.914 695.211 149.094 697.391 151.764 697.391H244.564C247.234 697.391 249.414 695.211 249.414 692.541V642.711C249.414 640.031 247.234 637.861 244.564 637.861H151.764Z" fill="#088243"/>
<path d="M168.823 672.702H154.573C151.783 672.702 149.523 670.431 149.523 667.651V660.572C149.523 657.782 151.793 655.521 154.573 655.521H168.823C171.613 655.521 173.873 657.792 173.873 660.572V667.651C173.883 670.431 171.613 672.702 168.823 672.702ZM154.573 659.511C153.993 659.511 153.523 659.982 153.523 660.562V667.641C153.523 668.221 153.993 668.692 154.573 668.692H168.823C169.403 668.692 169.873 668.221 169.873 667.641V660.562C169.873 659.982 169.403 659.511 168.823 659.511H154.573Z" fill="#088243"/>
<path d="M240.744 689.911H155.594C154.494 689.911 153.594 689.011 153.594 687.911V683.311C153.594 682.211 154.494 681.311 155.594 681.311H240.744C241.844 681.311 242.744 682.211 242.744 683.311V687.911C242.744 689.011 241.844 689.911 240.744 689.911ZM157.594 685.911H238.744V685.311H157.594V685.911Z" fill="#088243"/>
<path d="M240.744 643.521H155.594V647.521H240.744V643.521Z" fill="#088243"/>
<path d="M198.165 744.931C156.235 744.931 122.125 710.25 122.125 667.62C122.125 624.99 156.235 590.311 198.165 590.311C240.095 590.311 274.205 624.99 274.205 667.62C274.205 710.25 240.095 744.931 198.165 744.931ZM198.165 594.321C158.445 594.321 126.125 627.2 126.125 667.63C126.125 708.06 158.445 740.941 198.165 740.941C237.885 740.941 270.205 708.05 270.205 667.63C270.205 627.21 237.895 594.321 198.165 594.321Z" fill="#088243"/>
<path d="M368.306 744.93H2.01562C0.915625 744.93 0.015625 744.03 0.015625 742.93V592.33C0.015625 591.23 0.915625 590.33 2.01562 590.33H368.306C369.406 590.33 370.306 591.23 370.306 592.33V742.93C370.306 744.04 369.406 744.93 368.306 744.93ZM4.01562 740.93H366.306V594.33H4.01562V740.93Z" fill="#088243"/>
<path d="M1190.91 594.341H724.246C723.146 594.341 722.246 593.441 722.246 592.341C722.246 591.241 723.146 590.321 724.246 590.321H798.826V523.631H752.296C751.196 523.631 750.296 522.731 750.296 521.631V505.391C750.296 504.991 750.416 504.611 750.636 504.281C783.336 455.391 841.876 413.551 919.936 383.291C999.546 352.431 1093.46 336.111 1191.52 336.111C1192.05 336.111 1192.56 336.321 1192.94 336.701C1193.32 337.081 1193.52 337.591 1193.52 338.121L1192.92 592.351C1192.91 593.451 1192.02 594.341 1190.91 594.341ZM802.826 590.341H1188.91L1189.5 340.111C1092.66 340.331 999.986 356.541 921.376 387.021C844.356 416.881 786.596 458.011 754.296 506.001V519.631H800.826C801.926 519.631 802.826 520.531 802.826 521.631V590.341Z" fill="#088243"/>
<path d="M914.566 402.41H910.566V592.32H914.566V402.41Z" fill="#088243"/>
<path d="M912.562 457.081C912.022 457.081 911.513 456.861 911.133 456.481L892.062 437.091L894.913 434.291L912.553 452.231L930.203 434.281L933.053 437.081L913.973 456.481C913.613 456.861 913.103 457.081 912.562 457.081Z" fill="#088243"/>
<path d="M912.563 485.212C912.023 485.212 911.513 484.992 911.133 484.612L884.863 457.892L887.713 455.092L912.563 480.362L937.423 455.092L940.273 457.892L913.983 484.612C913.613 484.992 913.103 485.212 912.563 485.212Z" fill="#088243"/>
<path d="M912.564 513.34C912.024 513.34 911.514 513.12 911.134 512.74L882.664 483.781L885.514 480.98L912.564 508.49L939.624 480.98L942.474 483.781L913.994 512.74C913.614 513.12 913.104 513.34 912.564 513.34Z" fill="#088243"/>
<path d="M912.565 529.171C893.925 529.171 881.875 507.911 881.875 475.001C881.875 440.281 909.775 402.781 910.965 401.201C911.725 400.201 913.405 400.201 914.165 401.201C915.355 402.781 943.255 440.281 943.255 475.001C943.255 507.911 931.205 529.171 912.565 529.171ZM912.565 405.841C910.065 409.431 904.985 417.061 899.965 426.771C893.535 439.191 885.875 457.631 885.875 475.011C885.875 505.491 896.345 525.181 912.565 525.181C928.785 525.181 939.255 505.491 939.255 475.011C939.255 457.641 931.595 439.191 925.165 426.771C920.145 417.061 915.065 409.431 912.565 405.841Z" fill="#088243"/>
<path d="M1078.38 402.41H1074.38V592.32H1078.38V402.41Z" fill="#088243"/>
<path d="M1076.38 457.081C1075.84 457.081 1075.33 456.861 1074.95 456.481L1055.88 437.091L1058.73 434.291L1076.37 452.231L1094.02 434.281L1096.87 437.081L1077.79 456.481C1077.43 456.861 1076.91 457.081 1076.38 457.081Z" fill="#088243"/>
<path d="M1076.38 485.212C1075.84 485.212 1075.33 484.992 1074.95 484.612L1048.68 457.892L1051.53 455.092L1076.38 480.362L1101.24 455.092L1104.09 457.892L1077.8 484.612C1077.43 484.992 1076.91 485.212 1076.38 485.212Z" fill="#088243"/>
<path d="M1076.38 513.34C1075.84 513.34 1075.33 513.12 1074.95 512.74L1046.48 483.781L1049.33 480.98L1076.37 508.49L1103.43 480.98L1106.28 483.781L1077.8 512.74C1077.43 513.12 1076.91 513.34 1076.38 513.34Z" fill="#088243"/>
<path d="M1076.39 529.171C1057.75 529.171 1045.7 507.911 1045.7 475.001C1045.7 440.281 1073.6 402.781 1074.79 401.201C1075.55 400.201 1077.22 400.201 1077.98 401.201C1079.17 402.781 1107.08 440.281 1107.08 475.001C1107.07 507.911 1095.03 529.171 1076.39 529.171ZM1076.39 405.841C1073.89 409.431 1068.81 417.061 1063.79 426.771C1057.36 439.191 1049.7 457.631 1049.7 475.011C1049.7 505.491 1060.17 525.181 1076.39 525.181C1092.61 525.181 1103.08 505.491 1103.08 475.011C1103.08 457.641 1095.41 439.191 1088.98 426.771C1083.96 417.061 1078.89 409.431 1076.39 405.841Z" fill="#088243"/>
<path d="M937.366 305.12H925.166V301.12H937.366C948.216 301.12 957.036 292.3 957.036 281.45C957.036 270.6 948.216 261.78 937.366 261.78C935.926 261.78 934.466 261.94 933.036 262.26C932.486 262.38 931.916 262.27 931.456 261.95C930.996 261.63 930.686 261.14 930.616 260.58C929.256 250.95 920.886 243.68 911.146 243.68C900.296 243.68 891.476 252.5 891.476 263.35C891.476 264.36 891.556 265.37 891.706 266.36C891.806 267.03 891.566 267.71 891.056 268.16C890.546 268.61 889.846 268.77 889.186 268.59C887.716 268.17 886.196 267.96 884.676 267.96C875.536 267.96 868.105 275.39 868.105 284.53C868.105 293.67 875.536 301.1 884.676 301.1H897.096V305.1H884.676C873.336 305.1 864.105 295.87 864.105 284.53C864.105 273.19 873.336 263.96 884.676 263.96C885.616 263.96 886.555 264.02 887.485 264.15C887.475 263.88 887.476 263.62 887.476 263.35C887.476 250.3 898.096 239.68 911.146 239.68C922.166 239.68 931.736 247.41 934.196 257.98C935.256 257.84 936.316 257.76 937.366 257.76C950.416 257.76 961.036 268.38 961.036 281.43C961.036 294.48 950.416 305.12 937.366 305.12Z" fill="#088243"/>
<path d="M916.015 317.1H909.115C908.015 317.1 907.115 316.2 907.115 315.1V295.15H899.965C899.255 295.15 898.585 294.77 898.235 294.15C897.875 293.53 897.875 292.77 898.235 292.15L910.835 270.32C911.195 269.7 911.855 269.32 912.565 269.32C913.275 269.32 913.945 269.7 914.295 270.32L926.895 292.15C927.255 292.77 927.255 293.53 926.895 294.15C926.535 294.77 925.875 295.15 925.165 295.15H918.015V315.1C918.015 316.21 917.125 317.1 916.015 317.1ZM911.115 313.1H914.015V293.15C914.015 292.05 914.915 291.15 916.015 291.15H921.705L912.565 275.32L903.425 291.15H909.115C910.215 291.15 911.115 292.05 911.115 293.15V313.1Z" fill="#088243"/>
<path d="M912.564 339.64C878.794 339.64 851.324 312.17 851.324 278.4C851.324 244.63 878.794 217.15 912.564 217.15C946.334 217.15 973.814 244.62 973.814 278.4C973.814 312.18 946.334 339.64 912.564 339.64ZM912.564 221.15C881.004 221.15 855.324 246.83 855.324 278.4C855.324 309.97 881.004 335.64 912.564 335.64C944.134 335.64 969.814 309.96 969.814 278.4C969.814 246.84 944.134 221.15 912.564 221.15Z" fill="#088243"/>
<path d="M1142.4 343.62H1096.68C1096.14 343.62 1095.62 343.4 1095.25 343.02C1094.87 342.63 1094.67 342.11 1094.68 341.57L1100.17 127.43C1100.2 126.35 1101.08 125.48 1102.17 125.48H1136.9C1137.98 125.48 1138.87 126.34 1138.9 127.43L1144.39 341.57C1144.4 342.11 1144.2 342.63 1143.82 343.02C1143.45 343.4 1142.94 343.62 1142.4 343.62ZM1098.73 339.62H1140.34L1134.95 129.48H1104.12L1098.73 339.62Z" fill="#088243"/>
<path d="M1097.87 343.23L1095.5 340.01L1138.25 308.54L1097.17 276.4C1096.67 276.01 1096.39 275.41 1096.4 274.78C1096.41 274.15 1096.73 273.56 1097.24 273.2L1136.63 245.25L1098.72 214.36C1098.25 213.97 1097.97 213.39 1097.98 212.78C1097.99 212.17 1098.28 211.59 1098.76 211.22L1134.93 183.42L1100.26 159.74C1099.75 159.39 1099.43 158.82 1099.39 158.2C1099.36 157.58 1099.61 156.98 1100.08 156.57L1135.6 125.98L1138.21 129.01L1104.66 157.9L1139.46 181.67C1139.99 182.03 1140.31 182.62 1140.33 183.27C1140.35 183.91 1140.06 184.52 1139.55 184.91L1103.2 212.85L1141.19 243.81C1141.67 244.2 1141.95 244.8 1141.93 245.43C1141.91 246.05 1141.6 246.63 1141.09 246.99L1101.74 274.91L1142.78 307.02C1143.27 307.41 1143.56 308 1143.55 308.62C1143.54 309.25 1143.24 309.83 1142.74 310.2L1097.87 343.23Z" fill="#088243"/>
<path d="M1141.2 343.23L1096.33 310.2C1095.83 309.83 1095.53 309.24 1095.52 308.62C1095.51 307.99 1095.8 307.4 1096.29 307.02L1137.33 274.91L1097.98 246.99C1097.47 246.63 1097.16 246.05 1097.14 245.43C1097.12 244.81 1097.39 244.21 1097.88 243.81L1135.87 212.85L1099.52 184.91C1099.01 184.52 1098.72 183.91 1098.74 183.27C1098.76 182.63 1099.08 182.04 1099.61 181.67L1134.41 157.9L1100.87 129.01L1103.48 125.98L1139 156.57C1139.47 156.98 1139.73 157.58 1139.69 158.2C1139.65 158.82 1139.33 159.39 1138.82 159.74L1104.15 183.42L1140.32 211.22C1140.8 211.59 1141.09 212.17 1141.1 212.78C1141.11 213.39 1140.84 213.97 1140.36 214.36L1102.45 245.25L1141.84 273.2C1142.36 273.57 1142.67 274.15 1142.68 274.78C1142.7 275.41 1142.41 276.01 1141.91 276.4L1100.83 308.54L1143.58 340.01L1141.2 343.23Z" fill="#088243"/>
<path d="M1076.53 143.811C1072.58 143.811 1068.92 142.731 1065.82 140.601C1064.91 139.971 1064.68 138.731 1065.3 137.821L1100.84 86.0906C1101.47 85.1806 1102.71 84.9506 1103.62 85.5706C1109.01 89.2706 1112.02 95.6706 1112.09 103.571C1112.16 111.211 1109.46 119.411 1104.48 126.651C1099.5 133.891 1092.82 139.361 1085.66 142.041C1082.52 143.221 1079.44 143.811 1076.53 143.811ZM1069.81 138.311C1073.85 140.291 1078.9 140.301 1084.26 138.301C1090.66 135.911 1096.67 130.971 1101.18 124.391C1105.69 117.811 1108.15 110.431 1108.09 103.611C1108.04 97.8906 1106.22 93.1905 1102.92 90.1205L1069.81 138.311Z" fill="#088243"/>
<path d="M1064.93 105.281C1063.8 105.281 1062.66 104.951 1061.66 104.271C1060.39 103.391 1059.53 102.081 1059.25 100.561C1058.97 99.0412 1059.29 97.5012 1060.17 96.2312C1061.04 94.9612 1062.36 94.1012 1063.88 93.8212C1065.4 93.5412 1066.94 93.8612 1068.21 94.7412C1070.84 96.5412 1071.51 100.151 1069.7 102.781C1068.59 104.401 1066.77 105.281 1064.93 105.281ZM1063.93 100.971C1064.74 101.531 1065.85 101.321 1066.41 100.511C1066.97 99.7012 1066.76 98.5912 1065.95 98.0312C1065.56 97.7612 1065.08 97.6612 1064.61 97.7512C1064.14 97.8412 1063.73 98.1012 1063.47 98.4912C1063.2 98.8812 1063.1 99.3612 1063.19 99.8312C1063.28 100.301 1063.54 100.701 1063.93 100.971Z" fill="#088243"/>
<path d="M1069.11 99.738L1066.84 103.035L1083.5 114.478L1085.77 111.181L1069.11 99.738Z" fill="#088243"/>
</svg>
