<svg width="210" height="53" viewBox="0 0 210 53" fill="none" xmlns="http://www.w3.org/2000/svg">
<path d="M14.6649 27.2808C18.6905 15.3206 27.631 6.02541 38.7715 0.695312C22.0607 3.9237 7.667 15.2122 2.21377 31.3542C-0.220298 38.6127 -0.594769 46.0011 0.832903 52.9996H14.2905C11.7862 44.8528 11.7394 35.9693 14.6649 27.2808Z" fill="#035427"/>
<path d="M71.2103 34.7107C66.5996 21.0604 54.4527 11.5269 40.3164 8.79688C49.7484 13.3036 57.2846 21.1471 60.7017 31.2656C63.1826 38.6108 63.1123 46.1076 61.0059 52.9977H72.3805C73.5741 47.0826 73.2699 40.8425 71.2103 34.7107Z" fill="#8EC100"/>
<path d="M80.9219 0.0195312H90.2837V52.9738H80.9219V0.0195312ZM85.6262 44.7404H102.501C105.777 44.7404 108.219 44.1048 109.826 42.8336C111.418 41.5625 112.214 39.7858 112.214 37.5036V37.3952C112.214 35.8207 111.902 34.4702 111.277 33.3435C110.653 32.2312 109.686 31.379 108.375 30.7868C107.065 30.1945 105.434 29.8984 103.484 29.8984H85.6262V21.7299H103.484C106.089 21.7299 108.071 21.1449 109.429 19.9749C110.786 18.8193 111.472 17.1365 111.488 14.9265C111.472 12.7309 110.747 11.0697 109.311 9.94305C107.876 8.81636 105.754 8.25302 102.945 8.25302H85.6262V0.0195312H103.835C107.533 0.0195312 110.661 0.597319 113.22 1.7529C115.779 2.90847 117.706 4.55517 119.001 6.69299C120.312 8.8308 120.967 11.3947 120.967 14.3848C120.967 16.3204 120.553 18.0826 119.726 19.6716C118.9 21.2605 117.675 22.5894 116.052 23.6583C114.445 24.7272 112.471 25.4567 110.131 25.8467C112.549 26.1645 114.624 26.9011 116.356 28.0567C118.088 29.2123 119.414 30.6784 120.335 32.4551C121.256 34.2463 121.716 36.2469 121.716 38.4569V38.5652C121.716 41.4975 121.022 44.047 119.633 46.2137C118.26 48.3949 116.278 50.0704 113.688 51.2405C111.114 52.396 108.055 52.9738 104.514 52.9738H85.6262V44.7404Z" fill="#035427"/>
<path d="M124.852 0H134.26V52.976H124.852V0ZM128.76 22.7937H148.467C149.777 22.7937 150.94 22.4976 151.954 21.9054C152.953 21.3132 153.733 20.4681 154.294 19.3703C154.84 18.287 155.129 17.0159 155.16 15.5569C155.16 14.1269 154.879 12.863 154.318 11.7652C153.772 10.6819 152.992 9.83685 151.977 9.23017C150.979 8.63794 149.809 8.34182 148.467 8.34182H128.76V0H148.748C151.962 0 154.794 0.642789 157.243 1.92837C159.677 3.21395 161.573 5.0412 162.931 7.41013C164.272 9.76462 164.943 12.4802 164.943 15.5569C164.943 18.6626 164.272 21.3926 162.931 23.7471C161.573 26.1016 159.67 27.9216 157.22 29.2072C154.77 30.4928 151.946 31.1356 148.748 31.1356H128.76V22.7937ZM142.569 29.5105L152.328 27.8205L167.354 52.9976H156.05L142.569 29.5105Z" fill="#035427"/>
<path d="M169.32 0.0195312H178.729V52.9738H169.32V0.0195312ZM174.75 44.632H188.091C191.96 44.632 194.964 43.7364 197.101 41.9453C199.239 40.1542 200.308 37.6047 200.308 34.2968V18.7182C200.308 15.4104 199.239 12.8609 197.101 11.0697C194.964 9.26414 191.96 8.36135 188.091 8.36135H174.75V0.0195312H187.857C192.522 0.0195312 196.508 0.763434 199.816 2.25124C203.14 3.7246 205.667 5.88408 207.399 8.72969C209.131 11.5753 209.997 14.9987 209.997 18.9999V33.9935C209.997 37.908 209.147 41.2881 207.446 44.1337C205.73 46.9648 203.218 49.146 199.91 50.6771C196.587 52.2083 192.553 52.9738 187.81 52.9738H174.75V44.632Z" fill="#035427"/>
<path d="M169.32 0.0195312H178.729V52.9738H169.32V0.0195312ZM174.75 44.632H188.091C191.96 44.632 194.964 43.7364 197.101 41.9453C199.239 40.1542 200.308 37.6047 200.308 34.2968V18.7182C200.308 15.4104 199.239 12.8609 197.101 11.0697C194.964 9.26414 191.96 8.36135 188.091 8.36135H174.75V0.0195312H187.857C192.522 0.0195312 196.508 0.763434 199.816 2.25124C203.14 3.7246 205.667 5.88408 207.399 8.72969C209.131 11.5753 209.997 14.9987 209.997 18.9999V33.9935C209.997 37.908 209.147 41.2881 207.446 44.1337C205.73 46.9648 203.218 49.146 199.91 50.6771C196.587 52.2083 192.553 52.9738 187.81 52.9738H174.75V44.632Z" fill="#035427"/>
</svg>
