<svg width="946" height="592" viewBox="0 0 946 592" fill="none" xmlns="http://www.w3.org/2000/svg" class="brd-design-asset">
<path d="M708.751 521.418C724.927 521.418 738.041 493.02 738.041 457.989C738.041 422.957 724.927 394.559 708.751 394.559C692.575 394.559 679.461 422.957 679.461 457.989C679.461 493.02 692.575 521.418 708.751 521.418Z" stroke="#088243" stroke-width="5" stroke-miterlimit="10" stroke-linejoin="round"/>
<path d="M708.75 457.988V589.108" stroke="#088243" stroke-width="5" stroke-miterlimit="10" stroke-linejoin="round"/>
<path d="M708.751 486.418L679.891 457.559" stroke="#088243" stroke-width="5" stroke-miterlimit="10" stroke-linejoin="round"/>
<path d="M708.75 501.598L737.52 472.828" stroke="#088243" stroke-width="5" stroke-miterlimit="10" stroke-linejoin="round"/>
<path d="M624.931 539.499C636.788 539.499 646.401 518.689 646.401 493.019C646.401 467.349 636.788 446.539 624.931 446.539C613.073 446.539 603.461 467.349 603.461 493.019C603.461 518.689 613.073 539.499 624.931 539.499Z" stroke="#088243" stroke-width="5" stroke-miterlimit="10" stroke-linejoin="round"/>
<path d="M624.93 493.02V589.11" stroke="#088243" stroke-width="5" stroke-miterlimit="10" stroke-linejoin="round"/>
<path d="M624.931 513.849L603.781 492.709" stroke="#088243" stroke-width="5" stroke-miterlimit="10" stroke-linejoin="round"/>
<path d="M624.93 524.979L646.01 503.898" stroke="#088243" stroke-width="5" stroke-miterlimit="10" stroke-linejoin="round"/>
<path d="M548.931 539.499C560.788 539.499 570.401 518.689 570.401 493.019C570.401 467.349 560.788 446.539 548.931 446.539C537.073 446.539 527.461 467.349 527.461 493.019C527.461 518.689 537.073 539.499 548.931 539.499Z" stroke="#088243" stroke-width="5" stroke-miterlimit="10" stroke-linejoin="round"/>
<path d="M548.93 493.02V589.11" stroke="#088243" stroke-width="5" stroke-miterlimit="10" stroke-linejoin="round"/>
<path d="M548.931 513.849L527.781 492.709" stroke="#088243" stroke-width="5" stroke-miterlimit="10" stroke-linejoin="round"/>
<path d="M548.93 524.979L570.02 503.898" stroke="#088243" stroke-width="5" stroke-miterlimit="10" stroke-linejoin="round"/>
<path d="M4.46313 588.902L122.203 588.902L122.203 421.083L4.46313 421.083L4.46313 588.902Z" stroke="#088243" stroke-width="5" stroke-miterlimit="10" stroke-linejoin="round"/>
<path d="M53.291 442.318L69.741 495.918L36.7109 494.388L71.811 567.678L57.9709 511.748L91.7109 512.918L53.291 442.318Z" stroke="#088243" stroke-width="5" stroke-miterlimit="10" stroke-linejoin="round"/>
<path d="M52.3594 271.718H64.0596L60.5996 82.9082L52.8396 87.3784L52.3594 271.718Z" stroke="#088243" stroke-width="5" stroke-miterlimit="10" stroke-linejoin="round"/>
<path d="M3.42969 109.469L6.21973 114.299L52.8398 87.3887L60.5898 82.9185L63.0498 81.4985C63.1198 81.4585 63.1898 81.4087 63.2598 81.3687L63.3596 81.3086C65.5196 80.0586 67.2598 78.1587 68.3098 75.8687L117.73 98.3086L120.52 93.4785L63.9197 60.7986C62.0397 59.5686 59.7796 58.8486 57.3596 58.8486C56.9696 58.8486 56.5697 58.8684 56.1897 58.9084L50.9197 4.88867H45.3398L45.3298 70.8787V70.8887C45.3298 73.4987 46.1698 75.9087 47.5798 77.8787L3.42969 109.469Z" stroke="#088243" stroke-width="5" stroke-miterlimit="10" stroke-linejoin="round"/>
<path d="M304.188 345.199H312.357L309.938 213.379L304.528 216.499L304.188 345.199Z" stroke="#088243" stroke-width="5" stroke-miterlimit="10" stroke-linejoin="round"/>
<path d="M270.031 231.918L271.981 235.288L304.531 216.498L309.941 213.378L311.661 212.388C311.711 212.358 311.761 212.328 311.811 212.298L311.881 212.258C313.391 211.388 314.601 210.058 315.331 208.458L349.841 224.128L351.791 220.758L312.271 197.938C310.961 197.078 309.381 196.578 307.691 196.578C307.421 196.578 307.141 196.598 306.871 196.618L303.191 158.908H299.301L299.291 204.978V204.988C299.291 206.808 299.881 208.488 300.861 209.868L270.031 231.918Z" stroke="#088243" stroke-width="5" stroke-miterlimit="10" stroke-linejoin="round"/>
<path d="M176.023 427.468H191.653L187.023 175.318L176.673 181.288L176.023 427.468Z" stroke="#088243" stroke-width="5" stroke-miterlimit="10" stroke-linejoin="round"/>
<path d="M110.68 210.779L114.41 217.229L176.67 181.289L187.03 175.319L190.32 173.419C190.42 173.369 190.51 173.299 190.6 173.239L190.73 173.159C193.62 171.489 195.94 168.949 197.33 165.899L263.33 195.869L267.06 189.419L191.47 145.779C188.95 144.139 185.95 143.179 182.71 143.179C182.19 143.179 181.66 143.209 181.15 143.259L174.11 71.1191H166.66L166.65 159.239V159.249C166.65 162.739 167.78 165.949 169.66 168.589L110.68 210.779Z" stroke="#088243" stroke-width="5" stroke-miterlimit="10" stroke-linejoin="round"/>
<path d="M942.709 589.198H468.109C468.109 526.638 492.309 469.739 531.879 427.349C559.749 397.469 595.25 374.808 635.27 362.438C657.44 355.588 680.999 351.898 705.419 351.898C836.469 351.898 942.709 458.138 942.709 589.198Z" stroke="#088243" stroke-width="5" stroke-miterlimit="10" stroke-linejoin="round"/>
<path d="M570.359 292.879V211.789" stroke="#088243" stroke-width="5" stroke-miterlimit="10" stroke-linejoin="round"/>
<path d="M529.618 303.788L489.078 233.568" stroke="#088243" stroke-width="5" stroke-miterlimit="10" stroke-linejoin="round"/>
<path d="M499.798 333.618L429.578 293.068" stroke="#088243" stroke-width="5" stroke-miterlimit="10" stroke-linejoin="round"/>
<path d="M488.877 374.359H407.797" stroke="#088243" stroke-width="5" stroke-miterlimit="10" stroke-linejoin="round"/>
<path d="M499.794 415.1L441.664 448.659" stroke="#088243" stroke-width="5" stroke-miterlimit="10" stroke-linejoin="round"/>
<path d="M640.93 333.618L711.15 293.068" stroke="#088243" stroke-width="5" stroke-miterlimit="10" stroke-linejoin="round"/>
<path d="M611.094 303.788L651.644 233.568" stroke="#088243" stroke-width="5" stroke-miterlimit="10" stroke-linejoin="round"/>
<path d="M570.359 292.879V211.789" stroke="#088243" stroke-width="5" stroke-miterlimit="10" stroke-linejoin="round"/>
<path d="M635.261 362.438C595.241 374.808 559.741 397.469 531.871 427.349C531.741 427.459 531.621 427.548 531.491 427.658C515.061 415.668 504.391 396.259 504.391 374.359C504.391 337.919 533.921 308.389 570.361 308.389C602.731 308.389 629.651 331.698 635.261 362.438Z" stroke="#088243" stroke-width="5" stroke-miterlimit="10" stroke-linejoin="round"/>
<path d="M4.46094 259.279C259.651 259.279 466.511 406.969 466.511 589.149H4.46094V259.279Z" stroke="#088243" stroke-width="5" stroke-miterlimit="10" stroke-linejoin="round"/>
<path d="M446.078 86.5691H630.638C626.398 60.7191 609.058 53.8491 583.708 55.9991C583.708 55.9991 580.948 3.97896 541.458 2.89896C501.968 1.81896 498.068 44.729 498.068 44.729C498.068 44.729 451.348 37.2291 446.078 86.5691Z" stroke="#088243" stroke-width="5" stroke-miterlimit="10" stroke-linejoin="round"/>
<path d="M378.102 153.389H556.961" stroke="#088243" stroke-width="5" stroke-miterlimit="10" stroke-linejoin="round"/>
<path d="M408.273 127.279H476.643" stroke="#088243" stroke-width="5" stroke-miterlimit="10" stroke-linejoin="round"/>
<path d="M489.75 127.279H516.85" stroke="#088243" stroke-width="5" stroke-miterlimit="10" stroke-linejoin="round"/>
<path d="M378.102 173.039H442.451" stroke="#088243" stroke-width="5" stroke-miterlimit="10" stroke-linejoin="round"/>
</svg>
