<svg width="701" height="595" viewBox="0 0 701 595" fill="none" xmlns="http://www.w3.org/2000/svg">
<path d="M480.758 230.391C513.058 198.091 565.608 198.091 597.898 230.391" stroke="#088243" stroke-width="4" stroke-miterlimit="10" stroke-linejoin="round"/>
<path d="M494.477 244.11C519.207 219.38 559.457 219.38 584.187 244.11" stroke="#088243" stroke-width="4" stroke-miterlimit="10" stroke-linejoin="round"/>
<path d="M508.188 257.831C525.358 240.661 553.298 240.661 570.468 257.831" stroke="#088243" stroke-width="4" stroke-miterlimit="10" stroke-linejoin="round"/>
<path d="M547.999 282.174C552.814 277.358 552.814 269.552 547.999 264.736C543.184 259.921 535.377 259.921 530.562 264.736C525.747 269.552 525.747 277.358 530.562 282.174C535.377 286.989 543.184 286.989 547.999 282.174Z" stroke="#088243" stroke-width="4" stroke-miterlimit="10" stroke-linejoin="round"/>
<path d="M539.324 320.381C580.42 320.381 613.734 287.066 613.734 245.97C613.734 204.875 580.42 171.561 539.324 171.561C498.229 171.561 464.914 204.875 464.914 245.97C464.914 287.066 498.229 320.381 539.324 320.381Z" stroke="#088243" stroke-width="4" stroke-miterlimit="10" stroke-linejoin="round"/>
<path d="M286.711 83.469L243.041 102.519L184.991 127.829L83.2812 83.469L173.011 51.6191C172.981 52.0691 172.971 52.539 172.971 53.009C172.971 62.839 178.771 70.7991 185.921 70.7991C193.071 70.7991 198.871 62.839 198.871 53.009C198.871 52.829 198.871 52.649 198.861 52.469L204.181 54.3491L286.711 83.469Z" stroke="#088243" stroke-width="4" stroke-miterlimit="10" stroke-linejoin="round"/>
<path d="M126.344 102.849V154.659L136.454 159.259C166.404 172.869 200.824 173.119 230.974 159.939L243.034 154.669V102.529" stroke="#088243" stroke-width="4" stroke-miterlimit="10" stroke-linejoin="round"/>
<path d="M164.07 77.7288L197.74 90.6587L208.21 86.4888L174.99 73.0488L164.07 77.7288Z" stroke="#088243" stroke-width="4" stroke-miterlimit="10" stroke-linejoin="round"/>
<path d="M198.861 53.0088C198.861 62.8388 193.061 70.7988 185.911 70.7988C178.761 70.7988 172.961 62.8388 172.961 53.0088C172.961 52.5388 172.971 52.0789 173.001 51.6189C173.521 42.4389 179.101 35.2188 185.911 35.2188C192.931 35.2188 198.641 42.8888 198.851 52.4688C198.861 52.6488 198.861 52.8288 198.861 53.0088Z" stroke="#088243" stroke-width="4" stroke-miterlimit="10" stroke-linejoin="round"/>
<path d="M185.914 35.2188H191.254C198.404 35.2188 204.204 43.1788 204.204 53.0088C204.204 62.8288 198.404 70.7988 191.254 70.7988H185.914" stroke="#088243" stroke-width="4" stroke-miterlimit="10" stroke-linejoin="round"/>
<path d="M83.2812 133.019V83.4688H179.021" stroke="#088243" stroke-width="4" stroke-miterlimit="10" stroke-linejoin="round"/>
<path d="M83.2715 141.76C85.7126 141.76 87.6914 139.803 87.6914 137.39C87.6914 134.976 85.7126 133.02 83.2715 133.02C80.8304 133.02 78.8516 134.976 78.8516 137.39C78.8516 139.803 80.8304 141.76 83.2715 141.76Z" stroke="#088243" stroke-width="4" stroke-miterlimit="10" stroke-linejoin="round"/>
<path d="M79.6033 139.84L73.7031 151.34" stroke="#088243" stroke-width="4" stroke-miterlimit="10" stroke-linejoin="round"/>
<path d="M87.0469 139.398L92.9368 150.898" stroke="#088243" stroke-width="4" stroke-miterlimit="10" stroke-linejoin="round"/>
<path d="M81.5464 141.42L76.6562 155.48" stroke="#088243" stroke-width="4" stroke-miterlimit="10" stroke-linejoin="round"/>
<path d="M85.1016 140.98L89.9915 155.041" stroke="#088243" stroke-width="4" stroke-miterlimit="10" stroke-linejoin="round"/>
<path d="M83.2734 141.85V158.35" stroke="#088243" stroke-width="4" stroke-miterlimit="10" stroke-linejoin="round"/>
<path d="M343.031 229.361L343.031 2.79102L2.32129 2.79102L2.32129 229.361L343.031 229.361Z" stroke="#088243" stroke-width="4" stroke-miterlimit="10" stroke-linejoin="round"/>
<path d="M343.32 229.359H2.60938V355.869H343.32V229.359Z" stroke="#088243" stroke-width="4" stroke-miterlimit="10" stroke-linejoin="round"/>
<path d="M343.031 229.361L343.031 2.79102L2.32129 2.79102L2.32129 229.361L343.031 229.361Z" stroke="#088243" stroke-width="4" stroke-miterlimit="10" stroke-linejoin="round"/>
<path d="M262.169 303.519C274.209 264.439 305.999 237.139 342.939 229.359C318.309 242.239 298.569 264.709 289.649 293.639C283.169 314.659 283.309 336.169 288.859 355.869H259.079C255.959 338.969 256.759 321.079 262.169 303.519Z" stroke="#088243" stroke-width="4" stroke-miterlimit="10" stroke-linejoin="round"/>
<path d="M176.653 303.519C188.693 264.439 220.483 237.139 257.423 229.359C232.793 242.239 213.053 264.709 204.133 293.639C197.653 314.659 197.793 336.169 203.343 355.869H173.563C170.443 338.969 171.243 321.079 176.653 303.519Z" stroke="#088243" stroke-width="4" stroke-miterlimit="10" stroke-linejoin="round"/>
<path d="M91.1332 303.519C103.173 264.439 134.963 237.139 171.903 229.359C147.273 242.239 127.533 264.709 118.613 293.639C112.133 314.659 112.273 336.169 117.823 355.869H88.0433C84.9333 338.969 85.7232 321.079 91.1332 303.519Z" stroke="#088243" stroke-width="4" stroke-miterlimit="10" stroke-linejoin="round"/>
<path d="M8.07522 303.519C20.1152 264.439 51.9052 237.139 88.8452 229.359C64.2152 242.239 44.4752 264.709 35.5552 293.639C29.0752 314.659 29.2152 336.169 34.7652 355.869H4.98513C1.86513 338.969 2.66522 321.079 8.07522 303.519Z" stroke="#088243" stroke-width="4" stroke-miterlimit="10" stroke-linejoin="round"/>
<path d="M525.195 399.529H470.805V438.119H525.195V399.529Z" stroke="#088243" stroke-width="4" stroke-miterlimit="10" stroke-linejoin="round"/>
<path d="M514.765 438.119H470.805V476.709H514.765V438.119Z" stroke="#088243" stroke-width="4" stroke-miterlimit="10" stroke-linejoin="round"/>
<path d="M569.995 515.309H470.805V553.898H569.995V515.309Z" stroke="#088243" stroke-width="4" stroke-miterlimit="10" stroke-linejoin="round"/>
<path d="M648.355 553.898H470.805V592.489H648.355V553.898Z" stroke="#088243" stroke-width="4" stroke-miterlimit="10" stroke-linejoin="round"/>
<path d="M470.803 399.529H343.203V592.489H470.803V399.529Z" stroke="#088243" stroke-width="4" stroke-miterlimit="10" stroke-linejoin="round"/>
<path d="M457.902 419.26H413.242V591.93H457.902V419.26Z" stroke="#088243" stroke-width="4" stroke-miterlimit="10" stroke-linejoin="round"/>
<path d="M403.277 418.799H358.617V591.469H403.277V418.799Z" stroke="#088243" stroke-width="4" stroke-miterlimit="10" stroke-linejoin="round"/>
<path d="M275.061 399.529H147.461V592.489H275.061V399.529Z" stroke="#088243" stroke-width="4" stroke-miterlimit="10" stroke-linejoin="round"/>
<path d="M268.73 419.818H217.57V592.488H268.73V419.818Z" stroke="#088243" stroke-width="4" stroke-miterlimit="10" stroke-linejoin="round"/>
<path d="M209.082 419.818H157.922V592.488H209.082V419.818Z" stroke="#088243" stroke-width="4" stroke-miterlimit="10" stroke-linejoin="round"/>
<path d="M579.195 476.719H470.805V515.309H579.195V476.719Z" stroke="#088243" stroke-width="4" stroke-miterlimit="10" stroke-linejoin="round"/>
<path d="M489.195 476.719V515.309" stroke="#088243" stroke-width="4" stroke-miterlimit="10" stroke-linejoin="round"/>
<path d="M507.195 476.719V515.309" stroke="#088243" stroke-width="4" stroke-miterlimit="10" stroke-linejoin="round"/>
<path d="M525.195 476.719V515.309" stroke="#088243" stroke-width="4" stroke-miterlimit="10" stroke-linejoin="round"/>
<path d="M543.195 476.719V515.309" stroke="#088243" stroke-width="4" stroke-miterlimit="10" stroke-linejoin="round"/>
<path d="M561.195 476.719V515.309" stroke="#088243" stroke-width="4" stroke-miterlimit="10" stroke-linejoin="round"/>
<path d="M579.188 476.719V515.309" stroke="#088243" stroke-width="4" stroke-miterlimit="10" stroke-linejoin="round"/>
<path d="M343.205 356.709H275.055V381.449H343.205V356.709Z" stroke="#088243" stroke-width="4" stroke-miterlimit="10" stroke-linejoin="round"/>
<path d="M343.205 381.449H275.055V592.499H343.205V381.449Z" stroke="#088243" stroke-width="4" stroke-miterlimit="10" stroke-linejoin="round"/>
<path d="M489.188 553.898V592.489" stroke="#088243" stroke-width="4" stroke-miterlimit="10" stroke-linejoin="round"/>
<path d="M507.188 553.898V592.489" stroke="#088243" stroke-width="4" stroke-miterlimit="10" stroke-linejoin="round"/>
<path d="M525.188 553.898V592.489" stroke="#088243" stroke-width="4" stroke-miterlimit="10" stroke-linejoin="round"/>
<path d="M543.188 553.898V592.489" stroke="#088243" stroke-width="4" stroke-miterlimit="10" stroke-linejoin="round"/>
<path d="M561.188 553.898V592.489" stroke="#088243" stroke-width="4" stroke-miterlimit="10" stroke-linejoin="round"/>
<path d="M579.18 553.898V592.489" stroke="#088243" stroke-width="4" stroke-miterlimit="10" stroke-linejoin="round"/>
<path d="M597.18 553.898V592.489" stroke="#088243" stroke-width="4" stroke-miterlimit="10" stroke-linejoin="round"/>
<path d="M615.18 553.898V592.489" stroke="#088243" stroke-width="4" stroke-miterlimit="10" stroke-linejoin="round"/>
<path d="M633.18 553.898V592.489" stroke="#088243" stroke-width="4" stroke-miterlimit="10" stroke-linejoin="round"/>
<path d="M489.188 399.529V438.119" stroke="#088243" stroke-width="4" stroke-miterlimit="10" stroke-linejoin="round"/>
<path d="M507.188 399.529V438.119" stroke="#088243" stroke-width="4" stroke-miterlimit="10" stroke-linejoin="round"/>
<path d="M525.188 399.529V438.119" stroke="#088243" stroke-width="4" stroke-miterlimit="10" stroke-linejoin="round"/>
<path d="M670.258 402.58V592.49" stroke="#088243" stroke-width="4" stroke-miterlimit="10" stroke-linejoin="round"/>
<path d="M651.195 435.86L670.255 455.25L689.335 435.85" stroke="#088243" stroke-width="4" stroke-miterlimit="10" stroke-linejoin="round"/>
<path d="M643.992 456.66L670.262 483.38L696.552 456.66" stroke="#088243" stroke-width="4" stroke-miterlimit="10" stroke-linejoin="round"/>
<path d="M641.789 482.549L670.259 511.509L698.739 482.549" stroke="#088243" stroke-width="4" stroke-miterlimit="10" stroke-linejoin="round"/>
<path d="M698.95 475.18C698.95 509.63 686.11 527.35 670.26 527.35C654.41 527.35 641.57 509.64 641.57 475.18C641.57 440.73 670.26 402.58 670.26 402.58C670.26 402.58 698.95 440.72 698.95 475.18Z" stroke="#088243" stroke-width="4" stroke-miterlimit="10" stroke-linejoin="round"/>
</svg>
