<svg width="774" height="495" viewBox="0 0 774 495" fill="none" xmlns="http://www.w3.org/2000/svg">
<path d="M346.945 211.719H482.595C479.485 192.719 466.735 187.669 448.105 189.249C448.105 189.249 446.075 151.009 417.055 150.229C388.035 149.449 385.165 180.979 385.165 180.979C385.165 180.979 350.825 175.449 346.945 211.719Z" stroke="#088243" stroke-width="4" stroke-miterlimit="10" stroke-linejoin="round"/>
<path d="M414.177 432.739C428.509 432.739 440.126 407.586 440.126 376.559C440.126 345.531 428.509 320.379 414.177 320.379C399.845 320.379 388.227 345.531 388.227 376.559C388.227 407.586 399.845 432.739 414.177 432.739Z" stroke="#088243" stroke-width="4" stroke-miterlimit="10" stroke-linejoin="round"/>
<path d="M414.176 376.559V492.789" stroke="#088243" stroke-width="4" stroke-miterlimit="10" stroke-linejoin="round"/>
<path d="M414.176 401.74L439.746 376.18" stroke="#088243" stroke-width="4" stroke-miterlimit="10" stroke-linejoin="round"/>
<path d="M414.175 415.199L388.695 389.709" stroke="#088243" stroke-width="4" stroke-miterlimit="10" stroke-linejoin="round"/>
<path d="M321.106 429.54C321.106 336.28 263.416 260.67 192.256 260.67C121.096 260.67 63.4062 336.27 63.4062 429.54H321.106Z" stroke="#088243" stroke-width="4" stroke-miterlimit="10" stroke-linejoin="round"/>
<path d="M133.195 273.25L270.265 288" stroke="#088243" stroke-width="4" stroke-miterlimit="10" stroke-linejoin="round"/>
<path d="M298.574 323.569H298.563L100.844 302.289" stroke="#088243" stroke-width="4" stroke-miterlimit="10" stroke-linejoin="round"/>
<path d="M80.9141 332.67L314.394 357.81" stroke="#088243" stroke-width="4" stroke-miterlimit="10" stroke-linejoin="round"/>
<path d="M68.1328 363.83L322.982 391.27" stroke="#088243" stroke-width="4" stroke-miterlimit="10" stroke-linejoin="round"/>
<path d="M60.8359 395.57L326.146 424.13" stroke="#088243" stroke-width="4" stroke-miterlimit="10" stroke-linejoin="round"/>
<path d="M2.50098 492.793L369.961 492.793L369.961 429.553L2.50098 429.553L2.50098 492.793Z" stroke="#088243" stroke-width="4" stroke-miterlimit="10" stroke-linejoin="round"/>
<path d="M334.482 461.168L354.383 461.168L354.383 441.268L334.482 441.268L334.482 461.168Z" stroke="#088243" stroke-width="4" stroke-miterlimit="10" stroke-linejoin="round"/>
<path d="M284.342 461.168L304.242 461.168L304.242 441.268L284.342 441.268L284.342 461.168Z" stroke="#088243" stroke-width="4" stroke-miterlimit="10" stroke-linejoin="round"/>
<path d="M234.213 461.168L254.113 461.168L254.113 441.268L234.213 441.268L234.213 461.168Z" stroke="#088243" stroke-width="4" stroke-miterlimit="10" stroke-linejoin="round"/>
<path d="M184.081 461.168L203.98 461.168L203.98 441.268L184.081 441.268L184.081 461.168Z" stroke="#088243" stroke-width="4" stroke-miterlimit="10" stroke-linejoin="round"/>
<path d="M133.94 461.168L153.84 461.168L153.84 441.268L133.94 441.268L133.94 461.168Z" stroke="#088243" stroke-width="4" stroke-miterlimit="10" stroke-linejoin="round"/>
<path d="M771.519 233.51H546.129V491.25H771.519V233.51Z" stroke="#088243" stroke-width="4" stroke-miterlimit="10" stroke-linejoin="round"/>
<path d="M546.127 344.609H462.777V491.249H546.127V344.609Z" stroke="#088243" stroke-width="4" stroke-miterlimit="10" stroke-linejoin="round"/>
<path d="M546.125 399.889L771.516 399.889L771.516 377.539L546.125 377.539L546.125 399.889Z" stroke="#088243" stroke-width="4" stroke-miterlimit="10" stroke-linejoin="round"/>
<path d="M699.943 288.951L729.383 288.951L729.383 250.961L699.943 250.961L699.943 288.951Z" stroke="#088243" stroke-width="4" stroke-miterlimit="10" stroke-linejoin="round"/>
<path d="M644.103 288.951L673.543 288.951L673.543 250.961L644.103 250.961L644.103 288.951Z" stroke="#088243" stroke-width="4" stroke-miterlimit="10" stroke-linejoin="round"/>
<path d="M588.267 288.951L617.707 288.951L617.707 250.961L588.267 250.961L588.267 288.951Z" stroke="#088243" stroke-width="4" stroke-miterlimit="10" stroke-linejoin="round"/>
<path d="M699.943 351.656L729.383 351.656L729.383 313.666L699.943 313.666L699.943 351.656Z" stroke="#088243" stroke-width="4" stroke-miterlimit="10" stroke-linejoin="round"/>
<path d="M644.103 351.656L673.543 351.656L673.543 313.666L644.103 313.666L644.103 351.656Z" stroke="#088243" stroke-width="4" stroke-miterlimit="10" stroke-linejoin="round"/>
<path d="M588.267 351.656L617.707 351.656L617.707 313.666L588.267 313.666L588.267 351.656Z" stroke="#088243" stroke-width="4" stroke-miterlimit="10" stroke-linejoin="round"/>
<path d="M715.239 491.254L755.629 491.254L755.629 427.014L715.239 427.014L715.239 491.254Z" stroke="#088243" stroke-width="4" stroke-miterlimit="10" stroke-linejoin="round"/>
<path d="M638.625 491.254L679.016 491.254L679.016 427.014L638.625 427.014L638.625 491.254Z" stroke="#088243" stroke-width="4" stroke-miterlimit="10" stroke-linejoin="round"/>
<path d="M562.02 491.254L602.41 491.254L602.41 427.014L562.02 427.014L562.02 491.254Z" stroke="#088243" stroke-width="4" stroke-miterlimit="10" stroke-linejoin="round"/>
<path d="M536.898 380.27H512.898V356.27H496.008V380.27H472.008V397.159H496.008V421.159H512.898V397.159H536.898V380.27Z" stroke="#088243" stroke-width="4" stroke-miterlimit="10" stroke-linejoin="round"/>
<path d="M771.515 2.50977H546.125V233.51H771.515V2.50977Z" stroke="#088243" stroke-width="4" stroke-miterlimit="10" stroke-linejoin="round"/>
<path d="M658.815 194.221C700.905 194.221 735.025 160.1 735.025 118.011C735.025 75.9211 700.905 41.8008 658.815 41.8008C616.726 41.8008 582.605 75.9211 582.605 118.011C582.605 160.1 616.726 194.221 658.815 194.221Z" stroke="#088243" stroke-width="4" stroke-miterlimit="10" stroke-linejoin="round"/>
<path d="M658.815 230.221C720.787 230.221 771.025 179.983 771.025 118.011C771.025 56.0389 720.787 5.80078 658.815 5.80078C596.844 5.80078 546.605 56.0389 546.605 118.011C546.605 179.983 596.844 230.221 658.815 230.221Z" stroke="#088243" stroke-width="4" stroke-miterlimit="10" stroke-linejoin="round"/>
<path d="M609.016 135.6V104.58H624.985C627.945 104.58 630.215 104.83 631.775 105.34C633.345 105.85 634.605 106.79 635.565 108.16C636.525 109.53 637.005 111.21 637.005 113.19C637.005 114.91 636.636 116.4 635.906 117.64C635.176 118.89 634.165 119.9 632.875 120.68C632.055 121.17 630.935 121.58 629.505 121.91C630.645 122.29 631.475 122.67 632.005 123.05C632.355 123.3 632.866 123.85 633.536 124.68C634.206 125.51 634.655 126.16 634.875 126.61L639.516 135.6H628.686L623.565 126.12C622.915 124.89 622.335 124.1 621.835 123.73C621.145 123.25 620.365 123.01 619.485 123.01H618.636V135.6H609.016ZM618.646 117.15H622.686C623.126 117.15 623.966 117.01 625.226 116.73C625.856 116.6 626.376 116.28 626.786 115.76C627.186 115.24 627.386 114.64 627.386 113.96C627.386 112.96 627.066 112.19 626.436 111.65C625.806 111.11 624.605 110.85 622.855 110.85H618.646V117.15Z" stroke="#088243" stroke-width="2" stroke-miterlimit="10"/>
<path d="M639.395 104.58H648.495L651.774 121.94L656.575 104.58H665.645L670.455 121.92L673.734 104.58H682.794L675.955 135.6H666.555L661.115 116.07L655.695 135.6H646.294L639.395 104.58Z" stroke="#088243" stroke-width="2" stroke-miterlimit="10"/>
<path d="M685.965 104.58H709.665V111.24H695.595V116.66H707.615V122.92H695.595V135.59H685.965V104.58Z" stroke="#088243" stroke-width="2" stroke-miterlimit="10"/>
</svg>
